<svg xmlns="http://www.w3.org/2000/svg" viewBox="0 0 331.644 40.825" role="img" aria-label="SpaceX">
  <!-- Official SpaceX wordmark geometry (Wikimedia Commons / SpaceX brand mark).
       White monochrome for dark HUD; fill inherits via currentColor when inlined. -->
  <title>SpaceX</title>
  <g fill="#FFFFFF">
    <!-- S -->
    <path d="M29.333 25.118H8.754l-.606-.667v-4.402l.603-.466h27.742l.379-.927c-.945-2.431-3.392-3.565-7.936-3.565H9.665c-6.385 0-8.426 1.247-8.426 6.082v2.844c0 4.841 2.041 6.086 8.426 6.086h20.533l.645.566v4.602l-.526.718H6.83v-.022H.678s-.704.353-.677.518c.525 3.382 2.829 4.34 8.345 4.34h20.987c6.384 0 8.486-1.247 8.486-6.087v-3.543c0-4.84-2.102-6.085-8.486-6.085"/>
    <!-- P -->
    <path d="M77.292 15.094H49.249l-1.039.777v24.947h7.763v-9.355l.741-.664h20.579c5.196 0 7.632-1.398 7.632-4.985v-5.728c0-3.593-2.435-4.992-7.632-4.992m0 9.223c0 1.69-1.118 2.041-3.554 2.041H56.799l-.827-.804V20.21l.741-.678h17.025c2.436 0 3.554.347 3.554 2.045v2.74z"/>
    <!-- A -->
    <polyline points="99.081,19.813 105.761,29.6 105.391,30.548 90.618,30.548 86.847,35.187 108.837,35.187 110.361,36.115 113.775,40.824 122.659,40.824 103.186,14.775"/>
    <!-- C -->
    <path d="M140.361 19.685h28.288c-.436-3.597-2.668-4.595-8.33-4.595H140.06c-6.389 0-8.427 1.247-8.427 6.082v13.565c0 4.84 2.038 6.087 8.427 6.087h20.259c5.745 0 7.945-1.079 8.095-4.81h-28.053l-.832-.783V20.209"/>
    <!-- E -->
    <polyline points="187.418,35.757 187.418,28.833 188.217,28.143 203.079,28.143 203.079,23.734 179.524,23.734 179.524,40.823 214.27,40.823 214.27,36.435 188.252,36.435"/>
    <rect x="179.524" y="15.094" width="35.113" height="4.848"/>
    <!-- X left arm -->
    <path d="M236.725 14.988h-11.551l-.627 1.193 12.828 9.351c2.43-1.407 5.074-2.833 7.95-4.24"/>
    <!-- X right arm -->
    <path d="M247.075 32.603l11.275 8.222h11.692l.484-1.089-16.836-12.323c-2.236 1.641-4.445 3.374-6.615 5.19"/>
    <!-- Swoosh under X -->
    <path d="M235.006 40.806h-10.451l-.883-1.383C230.778 32.562 262.56 3.151 331.644 0c0 0-57.986 1.956-96.638 40.806"/>
  </g>
</svg>
